<?xml version="1.0" standalone="no"?>
<!DOCTYPE svg PUBLIC "-//W3C//DTD SVG 20010904//EN"
 "http://www.w3.org/TR/2001/REC-SVG-20010904/DTD/svg10.dtd">
<svg version="1.0" xmlns="http://www.w3.org/2000/svg"
 width="85.000000pt" height="85.000000pt" viewBox="0 0 85.000000 85.000000"
 preserveAspectRatio="xMidYMid meet">
<metadata>
Created by potrace 1.11, written by Peter Selinger 2001-2013
</metadata>
<g transform="translate(0.000000,85.000000) scale(0.100000,-0.100000)"
fill="#000000" stroke="none">
<path d="M410 778 c0 -54 3 -68 15 -68 12 0 15 14 15 68 0 54 -3 69 -15 69
-12 0 -15 -15 -15 -69z"/>
<path d="M136 721 c-8 -12 93 -93 106 -85 12 8 -1 23 -56 62 -25 18 -47 28
-50 23z"/>
<path d="M642 688 c-37 -29 -49 -44 -40 -49 7 -4 17 -4 23 0 64 48 94 75 89
82 -8 14 -16 10 -72 -33z"/>
<path d="M342 637 c-23 -12 -53 -32 -68 -45 -54 -48 -79 -151 -54 -219 13 -35
72 -123 83 -123 4 0 7 42 7 93 l0 94 52 91 c29 51 56 92 60 92 4 0 31 -42 61
-92 l55 -93 0 -90 c0 -49 1 -94 1 -99 2 -15 62 66 82 109 80 173 -112 368
-279 282z"/>
<path d="M373 493 c-21 -38 -21 -39 -3 -50 14 -10 21 -9 30 2 16 19 29 19 50
0 15 -14 19 -14 30 0 20 24 -17 79 -56 83 -25 3 -33 -3 -51 -35z"/>
<path d="M337 423 c-2 -4 -4 -57 -3 -117 1 -96 3 -109 19 -112 15 -2 17 9 17
106 0 80 -4 111 -14 119 -8 7 -16 8 -19 4z"/>
<path d="M405 417 c-10 -12 -15 -216 -6 -218 4 0 16 -2 29 -5 22 -4 22 -2 22
104 0 71 -4 112 -12 120 -15 15 -20 15 -33 -1z"/>
<path d="M484 408 c-10 -31 -11 -179 -1 -200 19 -42 27 -12 27 102 0 114 -9
148 -26 98z"/>
<path d="M30 384 c0 -10 16 -14 60 -14 33 0 63 -1 67 -2 4 -2 9 4 11 13 2 13
-9 16 -68 16 -53 0 -70 -3 -70 -13z"/>
<path d="M685 389 c-10 -14 -5 -17 35 -19 74 -4 100 0 100 15 0 12 -14 15 -64
15 -36 0 -68 -5 -71 -11z"/>
<path d="M337 164 c-4 -4 -5 -10 -3 -13 6 -10 176 0 176 10 0 10 -163 13 -173
3z"/>
<path d="M330 115 c0 -13 14 -15 98 -13 126 4 124 22 -3 26 -81 2 -95 0 -95
-13z"/>
<path d="M333 77 c-10 -17 10 -21 93 -20 82 1 104 6 91 19 -10 10 -178 11
-184 1z"/>
<path d="M369 20 c13 -11 38 -20 56 -20 18 0 43 9 56 20 l24 19 -80 0 -80 0
24 -19z"/>
</g>
</svg>
